<?xml version="1.0" encoding="UTF-8" standalone="no"?>
<svg
   xmlns:dc="http://purl.org/dc/elements/1.1/"
   xmlns:cc="http://creativecommons.org/ns#"
   xmlns:rdf="http://www.w3.org/1999/02/22-rdf-syntax-ns#"
   xmlns:svg="http://www.w3.org/2000/svg"
   xmlns="http://www.w3.org/2000/svg"
   xmlns:sodipodi="http://sodipodi.sourceforge.net/DTD/sodipodi-0.dtd"
   xmlns:inkscape="http://www.inkscape.org/namespaces/inkscape"
   version="1.1"
   width="189.004"
   height="189.004"
   id="svg8"
   sodipodi:docname="snowflake.svg"
   inkscape:version="0.92.1 r15371">
  <metadata
     id="metadata14">
    <rdf:RDF>
      <cc:Work
         rdf:about="">
        <dc:format>image/svg+xml</dc:format>
        <dc:type
           rdf:resource="http://purl.org/dc/dcmitype/StillImage" />
        <dc:title></dc:title>
      </cc:Work>
    </rdf:RDF>
  </metadata>
  <defs
     id="defs12" />
  <sodipodi:namedview
     pagecolor="#ffffff"
     bordercolor="#666666"
     borderopacity="1"
     objecttolerance="10"
     gridtolerance="10"
     guidetolerance="10"
     inkscape:pageopacity="0"
     inkscape:pageshadow="2"
     inkscape:window-width="1600"
     inkscape:window-height="853"
     id="namedview10"
     showgrid="false"
     fit-margin-top="0"
     fit-margin-left="0"
     fit-margin-right="0"
     fit-margin-bottom="0"
     inkscape:zoom="2.2425739"
     inkscape:cx="66.70776"
     inkscape:cy="109.74535"
     inkscape:window-x="-4"
     inkscape:window-y="-4"
     inkscape:window-maximized="1"
     inkscape:current-layer="svg8" />
  <path
     d="M 0.108,94.5022 C 0.108,42.37 42.3692,0.108 94.5017,0.108 c 52.1323,0 94.3943,42.262 94.3943,94.3942 0,52.1326 -42.262,94.3938 -94.3943,94.3938 -52.1325,0 -94.3937,-42.2612 -94.3937,-94.3938 z m 94.3946,59.2688 c 32.7336,0 59.2693,-26.5357 59.2693,-59.2693 0,-32.7337 -26.5357,-59.2693 -59.2693,-59.2693 -32.7337,0 -59.2693,26.5356 -59.2693,59.2693 0,32.7336 26.5356,59.2693 59.2693,59.2693 z"
     style="fill:#00619c;fill-rule:evenodd;stroke:#000000;stroke-width:0.21600001;stroke-linecap:butt;stroke-linejoin:miter;stroke-dasharray:none"
     id="circle"
     inkscape:connector-curvature="0"
     inkscape:label="#path2" />
  <path
     d="m 107.3631,171.3846 0.3489,-0.0549 0.3671,-0.0627 0.3739,-0.0516 0.373,-0.0221 0.36,0.0247 0.3379,0.0901 0.3082,0.1735 0.267,0.2749 0.2038,0.3765 0.1672,0.3963 0.1279,0.4124 0.091,0.4232 0.055,0.4306 0.0181,0.4329 -0.019,0.4308 -0.0541,0.4244 -0.148,0.3401 -0.2168,0.2688 -0.2733,0.208 -0.313,0.1596 -0.341,0.1216 -0.3517,0.0955 -0.3521,0.0805 -0.3362,0.0766 z m -1.2481,-6.4567 0.6301,-0.0831 0.6528,-0.074 0.3201,0.005 0.307,0.0535 0.288,0.1177 0.263,0.1964 0.2251,0.3254 0.1848,0.3558 0.14,0.379 0.093,0.3937 0.0411,0.4008 -0.015,0.4 -0.074,0.3914 -0.1389,0.3748 -0.1882,0.2418 -0.2239,0.1879 -0.2549,0.1449 -0.2749,0.1111 -0.5843,0.1613 -0.5748,0.1468 z m -33.9999,-2.4421 0.2027,-0.0467 0.2066,-0.019 0.2075,0.008 0.2047,0.0349 0.1987,0.0606 0.1888,0.0862 0.176,0.1106 0.1596,0.1346 0.144,0.2418 0.0865,0.2554 0.0377,0.2662 -10e-4,0.2721 -0.0329,0.275 -0.0547,0.2741 -0.0672,0.269 -0.0715,0.2602 -2.298,7.376 -0.0938,0.281 -0.1202,0.2871 -0.1494,0.2775 -0.1794,0.2537 -0.2123,0.2143 -0.2461,0.1607 -0.2826,0.091 -0.32,0.007 -0.3408,-0.0408 -0.3036,-0.1228 -0.2588,-0.1919 -0.2072,-0.246 -0.1468,-0.288 -0.0797,-0.3161 -0.005,-0.3302 0.0783,-0.3308 0.2664,-0.932 0.2764,-0.9287 0.2846,-0.9275 0.2886,-0.9252 0.2905,-0.9255 0.2894,-0.9258 0.2858,-0.9264 0.2789,-0.9286 0.0995,-0.3025 0.1034,-0.3104 0.1154,-0.3092 0.1338,-0.2996 0.1599,-0.2809 0.193,-0.2532 0.2336,-0.2171 z m 54.796,-4.4929 0.3169,-0.1615 0.3319,-0.1696 0.341,-0.159 0.3481,-0.1295 0.3521,-0.0817 0.3521,-0.0153 0.3478,0.0703 0.343,0.1741 0.3279,0.2786 0.2951,0.3195 0.256,0.3535 0.2151,0.3807 0.1698,0.403 0.1222,0.4187 0.0689,0.4283 0.0142,0.432 -0.1123,0.3232 -0.1718,0.2781 -0.2199,0.2406 -0.2571,0.2098 -0.5741,0.358 -0.5779,0.3254 z m -78.5937,-7.7669 0.4445,-0.2115 0.4555,-0.0147 0.4303,0.1482 0.3696,0.2756 0.2719,0.3693 0.1392,0.4283 -0.0301,0.4533 -0.2361,0.4431 -0.572,0.7877 -0.5896,0.7756 -0.6027,0.7662 -0.6108,0.7605 -0.6155,0.758 -0.6139,0.7585 -0.6086,0.762 -0.599,0.7693 -0.2217,0.273 -0.2259,0.2832 -0.2355,0.2798 -0.2503,0.261 -0.2716,0.2293 -0.2974,0.1826 -0.3291,0.121 -0.3665,0.0462 -0.2336,-0.072 -0.227,-0.1031 -0.2129,-0.1333 -0.1905,-0.1604 -0.1613,-0.1862 -0.1244,-0.2104 -0.0797,-0.231 -0.0275,-0.2511 0.017,-0.2178 0.0505,-0.2074 0.0774,-0.1985 0.0992,-0.1902 0.2395,-0.362 0.2574,-0.3438 4.4121,-5.5437 0.2855,-0.3532 0.2985,-0.3444 0.1582,-0.1642 0.1655,-0.1556 0.1749,-0.1448 z m 46.9729,13.3512 0.4938,16.4438 2.5705,-0.0786 -0.4879,-16.4435 z m -13.026,1.2226 -0.2078,0.6091 -0.1752,0.6336 -0.1287,0.6483 -0.07,0.6545 9e-4,0.6514 0.0856,0.6403 0.182,0.6194 0.2914,0.5899 0.3999,0.5238 0.4692,0.4453 0.5178,0.3892 0.5483,0.3555 0.5575,0.3444 0.5477,0.3563 0.5182,0.3904 0.4685,0.4467 0.131,0.3864 0.0788,0.3982 0.0329,0.4071 -0.008,0.4107 -0.0445,0.4105 -0.0749,0.4059 -0.1006,0.398 -0.1205,0.3852 -0.172,0.2841 -0.2336,0.2131 -0.2801,0.1457 -0.3101,0.0805 -0.3257,0.0184 -0.326,-0.0413 -0.3098,-0.0981 -0.2784,-0.1525 -0.1768,-0.1916 -0.127,-0.2158 -0.0868,-0.2338 -0.0558,-0.2475 -0.0593,-0.5128 -0.0541,-0.5023 -2.539,0.2656 0.0156,0.3544 0.0153,0.3597 0.0235,0.3608 0.0397,0.3586 0.0658,0.3521 0.0992,0.3418 0.142,0.3272 0.193,0.3095 0.4162,0.489 0.4921,0.3912 0.5524,0.2987 0.5976,0.2129 0.6273,0.1332 0.6415,0.0601 0.6397,-0.007 0.6237,-0.068 0.4685,-0.1105 0.4394,-0.184 0.4048,-0.2492 0.364,-0.3067 0.3183,-0.3557 0.267,-0.3969 0.2101,-0.4303 0.1476,-0.4552 0.1313,-0.5806 0.1154,-0.589 0.0904,-0.5953 0.0575,-0.5984 0.0153,-0.5978 -0.0357,-0.5944 -0.0949,-0.5879 -0.1633,-0.5783 -0.3288,-0.5797 -0.4184,-0.489 -0.4873,-0.4195 -0.5349,-0.3713 -0.5618,-0.3439 -0.5681,-0.3379 -0.5522,-0.3529 -0.5165,-0.3889 -0.2667,-0.2789 -0.1806,-0.3206 -0.1048,-0.3521 -0.0403,-0.3722 0.0145,-0.3829 0.0581,-0.3816 0.0921,-0.3707 0.1154,-0.3484 0.1491,-0.2965 0.2126,-0.2327 0.2616,-0.1693 0.2962,-0.1063 0.3152,-0.0428 0.3204,0.0199 0.3101,0.0825 0.2857,0.1445 0.1928,0.1803 0.1383,0.2084 0.093,0.2307 0.0589,0.2466 0.0561,0.5165 0.0423,0.5063 2.5514,-0.3532 -0.0155,-0.4885 -0.0522,-0.4932 -0.095,-0.4892 -0.1425,-0.4743 -0.1956,-0.4496 -0.2546,-0.4149 -0.3175,-0.3705 -0.3872,-0.3155 -0.7585,-0.3989 -0.8374,-0.25 -0.8762,-0.0961 -0.875,0.0635 -0.8331,0.2288 -0.7515,0.3982 -0.6293,0.5746 z m 20.8808,-1.6886 3.1578,16.137 0.688,-0.1528 0.699,-0.1275 0.7041,-0.1199 0.7011,-0.1293 0.6919,-0.1559 0.6761,-0.2004 0.6539,-0.2616 0.6231,-0.3408 0.466,-0.3744 0.3719,-0.4462 0.282,-0.5031 0.201,-0.5466 0.125,-0.5751 0.0561,-0.5896 -0.007,-0.5905 -0.063,-0.5768 -0.0921,-0.6251 -0.1468,-0.6349 -0.2092,-0.6217 -0.2778,-0.5836 -0.358,-0.5216 -0.4442,-0.4362 -0.5381,-0.3266 -0.642,-0.1933 0.343,-0.3067 0.2891,-0.3475 0.233,-0.383 0.1781,-0.4105 0.119,-0.4311 0.061,-0.4462 8e-4,-0.4535 -0.0598,-0.4544 -0.1262,-0.5967 -0.1638,-0.6066 -0.2112,-0.597 -0.267,-0.5664 -0.3339,-0.5162 -0.411,-0.4456 -0.495,-0.3546 -0.591,-0.2438 -0.739,-0.1153 -0.739,-0.0145 -0.7378,0.0635 -0.737,0.1199 -0.7351,0.1542 -0.7341,0.1664 -0.7319,0.1571 z m -32.3589,-2.886 -0.4294,0.2376 -0.3725,0.2987 -0.3229,0.3504 -0.2789,0.3912 -0.2418,0.4209 -0.2112,0.4402 -0.1873,0.4499 -0.1695,0.4476 -0.2158,0.6531 -0.2097,0.6551 -0.2053,0.6565 -0.2018,0.6582 -0.2007,0.6588 -0.2009,0.6584 -0.2019,0.6582 -0.2055,0.6574 -0.1865,0.6174 -0.1987,0.6202 -0.1965,0.6242 -0.1788,0.6284 -0.1469,0.6333 -0.0989,0.6386 -0.036,0.6438 0.0414,0.65 0.165,0.5692 0.2792,0.4887 0.3733,0.4155 0.4473,0.3504 0.5006,0.2922 0.5335,0.2427 0.5462,0.1995 0.5383,0.1653 0.5222,0.1003 0.5312,0.0219 0.5272,-0.0556 0.5103,-0.1329 0.4802,-0.2104 0.4362,-0.2871 0.3804,-0.3631 0.311,-0.4397 0.3676,-0.7027 0.3172,-0.7234 0.2778,-0.7398 0.2486,-0.7515 0.2313,-0.7591 0.2243,-0.7611 0.2284,-0.7594 0.2435,-0.7532 0.2086,-0.7033 0.2234,-0.701 0.2262,-0.7015 0.2177,-0.7042 0.1959,-0.7078 0.163,-0.7143 0.1179,-0.7223 0.0607,-0.733 -0.1922,-0.934 -0.451,-0.794 -0.6551,-0.6452 -0.8065,-0.4878 -0.9042,-0.322 -0.9496,-0.1472 -0.9408,0.0355 z m 45.2189,-0.0779 5.5029,15.5052 2.4171,-0.8598 -5.4941,-15.5055 z m 7.5228,-3.0583 7.776,14.4992 2.2451,-1.2107 -3.2108,-5.9936 1.0539,-0.5723 5.087,4.9907 2.2978,-1.2294 -5.603,-5.3152 0.2112,-0.4394 0.1571,-0.4572 0.1017,-0.4695 0.0482,-0.4762 -0.009,-0.4788 -0.0641,-0.4753 -0.1211,-0.4675 -0.1768,-0.4538 -0.292,-0.6718 -0.3481,-0.6707 -0.4071,-0.6429 -0.4708,-0.5887 -0.538,-0.5077 -0.608,-0.4014 -0.682,-0.2676 -0.76,-0.1077 -0.773,0.1097 -0.745,0.2035 -0.7211,0.2778 -0.703,0.3325 -0.6911,0.3677 -0.684,0.3827 -0.6828,0.3789 z m -70.4608,12.2694 2.6859,1.4383 10.4839,-13.0637 -2.3703,-1.2597 -0.9403,1.2061 -0.9303,1.2144 -0.9232,1.2189 -0.9188,1.2231 -0.9167,1.2237 -0.9173,1.2235 -0.9209,1.2209 -0.927,1.2152 0.5054,-1.4423 0.5043,-1.4426 0.5029,-1.4434 0.5,-1.4439 0.4955,-1.4454 0.4913,-1.4474 0.4844,-1.449 0.4779,-1.4517 -2.389,-1.2696 z m -5.0434,-21.8525 -0.4232,0.1471 -0.3926,0.2007 -0.3659,0.2455 -0.3439,0.2803 -0.3254,0.3062 -0.3112,0.3228 -0.3008,0.33 -0.2948,0.3277 -0.593,0.7443 -0.5938,0.7436 -0.5939,0.7435 -0.5939,0.7435 -0.5938,0.7447 -0.5922,0.7455 -0.591,0.7464 -0.5888,0.7483 -0.3223,0.4518 -0.3064,0.4828 -0.2707,0.5074 -0.2154,0.5267 -0.1398,0.5402 -0.0445,0.5483 0.0706,0.5507 0.2064,0.5471 0.2871,0.4241 0.3166,0.4073 0.3462,0.3847 0.3741,0.3571 0.4017,0.3235 0.4286,0.2846 0.4547,0.2398 0.4802,0.1899 0.4002,0.106 0.4085,0.0428 0.4102,-0.0158 0.4047,-0.0723 0.3935,-0.1245 0.3742,-0.1732 0.3492,-0.2185 0.3172,-0.2605 0.5272,-0.4938 0.497,-0.521 0.4736,-0.5423 0.4572,-0.5573 0.4468,-0.5663 0.443,-0.5692 0.4462,-0.567 0.455,-0.5573 0.4504,-0.5762 0.4618,-0.5695 0.4643,-0.5684 0.4583,-0.5726 0.4437,-0.5825 0.4201,-0.5978 0.3877,-0.6185 0.347,-0.6455 0.1602,-0.426 0.0861,-0.4405 0.0165,-0.4471 -0.0505,-0.4441 -0.1137,-0.4335 -0.1737,-0.4141 -0.2302,-0.3867 -0.2826,-0.35 -0.4113,-0.4255 -0.4567,-0.3971 -0.4958,-0.3532 -0.5286,-0.2934 -0.5559,-0.2172 -0.5763,-0.1253 -0.5924,-0.0175 z m 88.0864,4.8024 0.2738,0.5562 0.3101,0.5493 0.3481,0.5301 0.3889,0.4986 0.434,0.453 0.481,0.3949 0.5321,0.324 0.5871,0.2398 0.6749,0.1227 0.671,0.003 0.6669,-0.0816 0.6651,-0.1335 0.6638,-0.152 0.665,-0.1363 0.6682,-0.0873 0.6721,-0.004 0.3588,0.1853 0.332,0.2282 0.305,0.2645 0.28,0.2957 0.2551,0.32 0.2288,0.3379 0.2061,0.3506 0.182,0.3563 0.0779,0.311 -0.009,0.3016 -0.0861,0.2863 -0.1489,0.2645 -0.2001,0.2364 -0.2401,0.2018 -0.267,0.161 -0.2809,0.1137 -0.2789,0.0125 -0.2591,-0.0488 -0.243,-0.0981 -0.229,-0.1352 -0.4289,-0.3356 -0.409,-0.3422 -1.6231,1.9789 0.3441,0.3441 0.3679,0.3294 0.3929,0.2999 0.4161,0.2583 0.44,0.2024 0.462,0.1326 0.4842,0.0499 0.504,-0.0465 0.8597,-0.2418 0.8252,-0.4116 0.75,-0.5561 0.6339,-0.6761 0.477,-0.7719 0.279,-0.8424 0.0391,-0.8892 -0.2401,-0.9108 -0.3169,-0.5919 -0.3481,-0.5845 -0.381,-0.5672 -0.417,-0.5394 -0.4569,-0.5012 -0.5012,-0.453 -0.5459,-0.3951 -0.597,-0.326 -0.7039,-0.18 -0.701,-0.0264 -0.6981,0.0836 -0.6979,0.1511 -0.6971,0.1752 -0.699,0.1565 -0.701,0.0944 -0.705,-0.0108 -0.4459,-0.2384 -0.424,-0.3452 -0.3711,-0.4252 -0.2849,-0.4774 -0.1661,-0.5026 -0.015,-0.5003 0.1689,-0.4705 0.3841,-0.4142 0.3101,-0.2151 0.3189,-0.0905 0.3209,0.0148 0.3181,0.0986 0.3081,0.163 0.292,0.2061 0.2698,0.2293 0.2413,0.2316 1.5567,-2.0412 -0.354,-0.3371 -0.3838,-0.316 -0.411,-0.2838 -0.4352,-0.2392 -0.4549,-0.1843 -0.474,-0.1168 -0.4881,-0.0382 -0.5009,0.0521 -0.8181,0.2546 -0.7718,0.4136 -0.6911,0.549 -0.578,0.6599 -0.4309,0.7487 -0.252,0.8124 -0.038,0.8532 z m 11.694,-14.1891 0.3858,0.8496 0.3881,0.8487 0.388,0.8484 0.387,0.8487 0.3849,0.8504 0.3801,0.8521 0.3739,0.8546 0.3663,0.8575 -0.6523,-0.5352 -0.648,-0.5426 -0.6417,-0.5482 -0.6401,-0.5513 -0.6381,-0.5533 -0.6389,-0.5528 -0.6401,-0.5502 -0.644,-0.5471 -1.6481,1.9202 12.4631,10.7215 1.6552,-1.9137 -0.4462,-0.3926 -0.451,-0.3866 -0.453,-0.3841 -0.4541,-0.3833 -0.4518,-0.3852 -0.4482,-0.3895 -0.4408,-0.3963 -0.432,-0.4059 -0.159,-0.2795 -0.146,-0.2857 -0.1372,-0.2911 -0.129,-0.2945 -0.2528,-0.5922 -0.265,-0.5865 7.092,2.617 1.7039,-1.973 -9.893,-3.5172 -2.8859,-6.8476 z m -121.352,8.5142 1.6418,1.923 0.9244,-0.7855 0.9224,-0.7872 0.9224,-0.7877 0.9218,-0.788 0.9227,-0.7869 0.9238,-0.7855 0.9258,-0.7838 0.9281,-0.7804 -0.6044,1.1597 -0.6083,1.1574 -0.6106,1.1568 -0.6106,1.1565 -0.6094,1.158 -0.6049,1.159 -0.6001,1.1631 -0.5919,1.1667 1.457,1.7008 12.5101,-10.6716 -1.6225,-1.9043 -0.9247,0.7847 -0.9221,0.7869 -0.9207,0.7891 -0.9207,0.7892 -0.9224,0.7874 -0.9249,0.7844 -0.9286,0.7801 -0.934,0.7738 0.6168,-1.152 0.6148,-1.1528 0.6126,-1.154 0.61,-1.1548 0.6075,-1.1568 0.6052,-1.1577 0.6023,-1.1594 0.5993,-1.1613 -1.4885,-1.7351 z m 137.717,-60.4335 5.4558,-0.459 0.019,0.3711 0.0253,0.3909 0.0139,0.3991 -0.0162,0.394 -0.0629,0.3759 -0.1279,0.3469 -0.2131,0.3062 -0.313,0.2509 -0.432,0.1811 -0.451,0.1369 -0.4629,0.0938 -0.4719,0.0499 -0.4743,0.007 -0.4728,-0.0363 -0.464,-0.0788 -0.451,-0.1216 -0.3331,-0.2001 -0.25,-0.2631 -0.18,-0.3118 -0.1239,-0.3469 -0.0822,-0.3711 -0.0538,-0.3801 -0.04,-0.3759 z m 7.88,-0.6599 4.5638,-0.3841 0.0111,0.3492 0.019,0.3679 0.0102,0.3731 -0.0162,0.3687 -0.0581,0.3541 -0.1168,0.3271 -0.1922,0.292 -0.2849,0.244 -0.352,0.169 -0.3751,0.131 -0.39,0.0878 -0.398,0.0442 -0.3988,-0.004 -0.392,-0.0542 -0.379,-0.1068 -0.3572,-0.1642 -0.2648,-0.214 -0.1981,-0.2571 -0.1429,-0.2908 -0.098,-0.3149 -0.1132,-0.665 z M 25.8018,62.625 l 0.1693,-0.3391 0.1771,-0.358 0.1948,-0.358 0.2202,-0.3351 0.2543,-0.2928 0.2979,-0.229 0.3495,-0.1451 0.4099,-0.038 0.4377,0.0609 0.4303,0.1032 0.4203,0.144 0.4074,0.1808 0.3912,0.2141 0.3722,0.2452 0.3495,0.2729 0.3245,0.298 0.2294,0.343 0.1145,0.3631 0.0198,0.377 -0.0553,0.3838 -0.1111,0.3841 -0.1468,0.3778 -0.163,0.3663 -0.1596,0.3469 z m -6.3286,-3.0359 0.3322,-0.6203 0.3716,-0.627 0.2237,-0.273 0.2594,-0.2259 0.305,-0.161 0.3594,-0.0791 0.3855,0.0233 0.3835,0.07 0.3759,0.1139 0.3609,0.1559 0.341,0.1951 0.3143,0.233 0.2818,0.2698 0.2429,0.3022 0.1415,0.3268 0.0547,0.3323 -0.0156,0.3327 -0.0703,0.3331 -0.1094,0.3311 -0.133,0.326 -0.1397,0.318 -0.1315,0.3079 z m 15.762,-22.8762 0.5185,-0.483 0.5494,-0.468 0.2965,-0.1911 0.3163,-0.1428 0.3402,-0.078 h 0.3679 l 0.4612,0.157 0.4365,0.22 0.4059,0.2781 0.3688,0.328 0.326,0.3699 0.277,0.407 0.2219,0.4368 0.1605,0.4581 v 0.3739 l -0.0831,0.3461 -0.1499,0.3201 -0.2016,0.299 -0.4924,0.5519 -0.5051,0.5159 z m 39.331,-22.487 0.343,-0.189 0.3544,-0.0749 0.3517,0.0289 0.3337,0.1199 0.3016,0.1971 0.254,0.2641 0.1919,0.3178 0.1151,0.358 0.2925,1.0732 0.2849,1.0761 0.2778,1.078 0.2732,1.0788 0.2716,1.08 0.2707,1.08 0.2727,1.08 0.2764,1.0781 0.0856,0.3359 0.0513,0.3619 0.008,0.3691 -0.0442,0.36 -0.1055,0.3339 -0.1757,0.2923 -0.2549,0.2319 -0.3432,0.157 -0.3402,0.114 -0.3345,0.0138 -0.3192,-0.0728 -0.2942,-0.148 -0.2599,-0.2112 -0.2166,-0.2607 -0.1636,-0.3002 -0.1012,-0.326 -0.284,-1.065 L 75.6616,22.9921 75.3884,21.9248 75.1182,20.857 74.8503,19.7881 74.5828,18.7188 74.3143,17.651 74.0442,16.5829 73.9773,16.276 73.9288,15.95 73.909,15.6169 l 0.0175,-0.33 0.0649,-0.3149 0.1219,-0.2891 0.1883,-0.2529 z m 91.9389,95.7498 -0.756,0.3487 -0.6891,0.4629 -0.61,0.5618 -0.5218,0.6457 -0.4221,0.7141 -0.311,0.7682 -0.191,0.8076 -0.057,0.8311 0.047,0.7843 0.1659,0.7645 0.2761,0.7317 0.3758,0.6859 0.4672,0.6279 0.5499,0.5565 0.6239,0.4728 0.6891,0.3761 0.8249,0.311 0.862,0.1644 0.8782,0.0221 0.8719,-0.1148 0.843,-0.2474 0.794,-0.3756 0.722,-0.4992 0.629,-0.6177 0.5519,-0.7276 0.411,-0.8096 0.2691,-0.8674 0.125,-0.9 -0.0179,-0.9094 -0.1641,-0.8932 -0.3098,-0.8535 -0.4581,-0.7894 -0.574,-0.7161 -0.688,-0.5978 -0.7781,-0.4722 -0.845,-0.3408 -0.8901,-0.2018 -0.9088,-0.0561 -0.9059,0.0964 z m -147.5974,-0.1094 -0.9301,0.3731 -0.8319,0.5428 -0.7186,0.6865 -0.5882,0.8022 -0.4414,0.8918 -0.278,0.9539 -0.099,0.9896 0.0973,0.998 0.2769,1.0236 0.4793,0.9355 0.6523,0.8237 0.7943,0.6905 0.9065,0.5358 0.9879,0.3577 1.0394,0.1582 1.0607,-0.0632 1.0772,-0.2552 0.9853,-0.4782 0.8674,-0.6667 0.7254,-0.822 0.5579,-0.9437 0.3654,-1.0312 0.1476,-1.0857 -0.0958,-1.1052 -0.3089,-1.1364 -0.5568,-1.0188 -0.7619,-0.8742 -0.925,-0.7036 -1.0462,-0.5065 -1.1242,-0.2829 -1.1606,-0.0332 z m 142.5132,-26.1703 0.0921,0.8138 0.055,0.8312 0.0459,0.8379 0.0652,0.8351 0.1109,0.8209 0.1831,0.7999 0.2849,0.7671 0.413,0.7254 0.5751,0.5791 0.665,0.4249 0.7339,0.2869 0.783,0.1672 0.811,0.0643 0.8192,-0.0209 0.8059,-0.089 0.773,-0.1401 0.432,-0.1085 0.405,-0.1636 0.3759,-0.2146 0.3441,-0.2599 0.3079,-0.3028 0.269,-0.3407 0.2279,-0.3739 0.1831,-0.4028 0.4099,0.5828 0.5111,0.4397 0.591,0.3087 0.6491,0.1905 0.684,0.085 0.6979,-0.007 0.69,-0.0876 0.661,-0.1544 0.561,-0.1205 0.536,-0.205 0.4989,-0.2834 0.4482,-0.3549 0.3849,-0.4187 0.3101,-0.4757 0.222,-0.5249 0.121,-0.5692 0.0519,-0.675 0.007,-0.676 -0.0261,-0.6761 -0.0499,-0.6758 -0.064,-0.676 -0.0692,-0.6761 -0.0638,-0.6749 -0.0482,-0.6761 z m -149.4266,-2.8582 -0.7867,0.3941 -0.6281,0.5692 -0.4737,0.7058 -0.3223,0.803 -0.1735,0.8632 -0.0289,0.8838 0.1131,0.864 0.252,0.8071 0.3657,0.6258 0.4734,0.5091 0.5615,0.406 0.6279,0.3121 0.6755,0.2298 0.7016,0.1605 0.7075,0.1018 0.6928,0.0532 0.5766,-0.003 0.5604,-0.0927 0.5377,-0.1731 0.5094,-0.2472 0.4745,-0.313 0.434,-0.3699 0.3875,-0.4201 0.3345,-0.4629 0.2421,-0.337 0.2279,-0.349 0.2213,-0.356 0.2228,-0.354 0.2319,-0.347 0.2492,-0.3311 0.2738,-0.309 0.307,-0.2809 0.398,-0.1531 0.413,-0.0909 0.4232,-0.0349 0.428,0.0108 0.4292,0.0501 0.4252,0.0808 0.4164,0.1032 0.4031,0.1191 0.3319,0.1717 0.2532,0.25 0.176,0.3082 0.1001,0.3469 0.0255,0.3651 -0.0482,0.3649 -0.1194,0.3441 -0.1907,0.303 -0.203,0.182 -0.2282,0.129 -0.248,0.0859 -0.2614,0.053 -0.5414,0.0521 -0.5284,0.0479 0.2254,2.7114 0.5136,0.006 0.5208,-0.0229 0.5179,-0.0621 0.5054,-0.1103 0.4824,-0.1681 0.4502,-0.2347 0.4067,-0.3112 0.3549,-0.3969 0.4882,-0.8189 0.3336,-0.9252 0.1664,-0.9808 -0.0122,-0.989 -0.2027,-0.9491 -0.4059,-0.858 -0.6205,-0.718 -0.8478,-0.531 -0.7223,-0.2301 -0.7435,-0.199 -0.7583,-0.1551 -0.7662,-0.0998 -0.7668,-0.0312 -0.7611,0.0482 -0.7489,0.1389 -0.7296,0.2441 -0.5803,0.4059 -0.487,0.493 -0.4206,0.555 -0.3813,0.593 -0.3677,0.6072 -0.3812,0.5958 -0.421,0.559 -0.4881,0.4989 -0.3339,0.1681 -0.3546,0.1021 -0.3682,0.043 -0.3756,-0.008 -0.3753,-0.053 -0.3691,-0.091 -0.3552,-0.1219 -0.335,-0.1448 -0.2696,-0.1843 -0.2016,-0.2389 -0.136,-0.2798 -0.0726,-0.3081 -0.0122,-0.3209 0.0462,-0.3201 0.1007,-0.303 0.1544,-0.2741 0.1968,-0.1959 0.2242,-0.1391 0.2458,-0.093 0.2605,-0.0578 0.5442,-0.0463 0.5355,-0.0218 -0.3342,-2.7331 -0.5522,0.0189 -0.5519,0.0372 -0.273,0.0368 -0.2696,0.0542 -0.2645,0.0759 z m 0.8659,-11.3249 -0.744,2.6421 16.8814,4.7739 0.7441,-2.651 z m 151.1649,-1.4381 -0.5411,0.1721 -0.542,0.1729 -0.54,0.1812 -0.5349,0.1919 -0.5281,0.21 -0.5171,0.2322 -0.5028,0.2608 -0.487,0.295 -0.381,0.3102 -0.32,0.3639 -0.2551,0.4099 -0.1931,0.4439 -0.127,0.4692 -0.0618,0.483 0.004,0.489 0.0709,0.483 0.1159,0.5408 0.1562,0.542 0.199,0.5321 0.2469,0.5091 0.2999,0.4739 0.358,0.4241 0.4201,0.364 0.487,0.2911 0.4941,0.1888 0.5048,0.0992 0.5142,0.0238 0.5191,-0.0369 0.5198,-0.083 0.5159,-0.1131 0.5103,-0.1298 0.4989,-0.1302 12.003,-3.9121 -0.847,-2.6109 -1.565,0.5079 -1.5642,0.5111 -1.5638,0.5119 -1.5642,0.5123 -1.5639,0.5119 -1.5638,0.5088 -1.5651,0.5071 -1.5661,0.5029 -0.3379,0.1052 -0.3591,0.0499 -0.362,-0.007 -0.349,-0.0692 -0.32,-0.1341 -0.273,-0.2029 -0.21,-0.277 -0.131,-0.3529 -0.083,-0.3351 0.0122,-0.3208 0.0958,-0.3011 0.1641,-0.2741 0.2208,-0.2429 0.2631,-0.2041 0.2919,-0.1599 0.307,-0.11 1.5781,-0.523 1.5792,-0.5201 1.5797,-0.5171 1.58,-0.5159 1.5801,-0.515 1.58,-0.5151 1.58,-0.5179 1.5789,-0.5179 -0.8509,-2.586 z M 19.0701,55.6271 18.54,56.1909 l -0.4538,0.6171 -0.3949,0.6579 -0.3529,0.6871 -0.3268,0.7039 -0.3183,0.71 -0.3266,0.7022 -0.3512,0.6829 15.8304,7.588 0.337,-0.76 0.377,-0.756 0.3869,-0.7571 0.368,-0.7631 0.3186,-0.7758 0.2404,-0.7951 0.1321,-0.817 -0.006,-0.8478 -0.1922,-0.7263 -0.3285,-0.648 L 33.037,60.319 32.5038,59.8119 31.9025,59.3691 31.2562,58.985 30.5875,58.657 29.9194,58.3778 29.4545,58.2108 28.9738,58.1 l -0.4879,-0.0502 -0.4855,0.0142 -0.4746,0.0851 -0.4541,0.159 -0.4246,0.2389 -0.3858,0.3221 -0.0485,-0.4431 -0.0978,-0.432 -0.1462,-0.415 -0.1942,-0.392 -0.241,-0.364 -0.2877,-0.3291 -0.333,-0.2888 -0.3776,-0.2433 -0.6319,-0.3299 -0.678,-0.2948 -0.7084,-0.2373 -0.7225,-0.1547 -0.722,-0.0482 -0.705,0.081 -0.6729,0.2362 z m 133.2238,3.6487 3.655,6.6501 2.2572,-1.247 -2.3439,-4.2559 13.1159,-7.223 -1.3162,-2.3791 z M 24.3732,46.091 38.681,56.23 40.2755,53.998 25.9521,43.8508 Z m 131.8419,-7.0801 -0.7121,0.3331 -0.6769,0.3909 -0.648,0.436 -0.629,0.4711 -0.614,0.491 -0.6092,0.4989 -0.6088,0.496 -0.618,0.4791 -0.6242,0.5119 -0.6369,0.4989 -0.6409,0.4952 -0.637,0.4989 -0.627,0.51 -0.6092,0.5312 -0.5819,0.559 -0.548,0.5938 -0.295,0.381 -0.2279,0.4241 -0.1602,0.453 -0.0899,0.4731 -0.0181,0.4799 0.0573,0.477 0.1349,0.4609 0.214,0.4352 0.2758,0.5048 0.3161,0.4941 0.3571,0.468 0.4,0.428 0.4419,0.3731 0.487,0.305 0.5321,0.2219 0.5788,0.125 0.4561,0.04 0.4431,-0.0332 0.432,-0.0949 0.4209,-0.1449 0.4099,-0.1831 0.4003,-0.2089 0.3917,-0.2239 0.3832,-0.2271 -1.3731,-2.357 -0.2729,0.163 -0.2931,0.1638 -0.307,0.1471 -0.3161,0.1131 -0.3169,0.0618 -0.3129,-0.007 -0.3031,-0.0929 -0.286,-0.1962 -0.2591,-0.246 -0.176,-0.2909 -0.0958,-0.32 -0.019,-0.3339 0.0558,-0.3323 0.1282,-0.3157 0.197,-0.2821 0.263,-0.233 0.8839,-0.72 0.8869,-0.7172 0.8893,-0.716 0.8897,-0.7129 0.8921,-0.7109 0.8941,-0.709 0.894,-0.7081 0.896,-0.7061 0.2948,-0.2228 0.3351,-0.174 0.3591,-0.116 0.3668,-0.049 0.36,0.0261 0.3371,0.1119 0.299,0.205 0.243,0.309 0.1752,0.3319 0.0589,0.3331 -0.04,0.3299 -0.119,0.322 -0.1772,0.309 -0.2168,0.292 -0.237,0.269 -0.2381,0.2429 2.1671,1.62 0.3228,-0.3189 0.3153,-0.337 0.2939,-0.356 0.2619,-0.3759 0.216,-0.3991 0.1579,-0.421 0.089,-0.4439 0.006,-0.4691 -0.1701,-0.942 -0.3722,-0.9039 -0.542,-0.8261 -0.6868,-0.7061 -0.8031,-0.5459 -0.8889,-0.343 -0.9479,-0.1009 z m -120.8483,-5.8118 -0.5267,0.4019 -0.504,0.4269 -0.4867,0.447 -0.4745,0.4621 -0.4678,0.468 -0.4654,0.4708 -0.4689,0.468 -0.4773,0.4573 12.2885,12.5189 1.9448,-1.904 -5.0783,-5.1781 0.9103,-0.8969 6.7067,3.5961 1.9761,-1.9392 -0.9156,-0.4768 -0.9173,-0.4751 -0.9182,-0.4711 -0.9184,-0.472 -0.9181,-0.472 -0.917,-0.4739 -0.9151,-0.4771 -0.9124,-0.481 0.1278,-0.889 -0.0748,-0.8529 -0.2483,-0.8141 -0.3918,-0.7679 -0.506,-0.718 -0.5902,-0.6619 -0.6451,-0.6001 -0.6704,-0.5341 -0.5105,-0.3398 -0.5539,-0.2532 -0.5842,-0.1618 -0.601,-0.0712 -0.6035,0.023 -0.593,0.117 -0.5692,0.2129 z m 100.2362,-13.608 -2.4699,9.6029 -0.104,0.3779 -0.125,0.3721 -0.074,0.1809 -0.083,0.176 -0.093,0.1721 -0.106,0.165 -3.5862,5.5618 2.2862,1.4641 0.506,-0.769 0.4989,-0.775 0.4941,-0.7778 0.4929,-0.7793 0.498,-0.7758 0.5049,-0.7699 0.517,-0.7603 0.5341,-0.7497 1.0321,-0.8513 1.038,-0.8458 1.0409,-0.8419 1.044,-0.8391 1.0451,-0.8382 1.0449,-0.8379 1.044,-0.841 1.04,-0.8431 -2.4128,-1.5539 -0.6662,0.6029 -0.6638,0.6072 -0.6622,0.606 -0.663,0.6069 -0.6651,0.6041 -0.6678,0.5998 -0.6721,0.5961 -0.678,0.5891 0.2741,-0.8581 0.273,-0.8589 0.2718,-0.8592 0.2713,-0.8588 0.2678,-0.8609 0.2659,-0.862 0.2611,-0.8621 0.2571,-0.8651 z m -76.3575,-2.6482 3.0547,6.6632 -2.8608,1.3158 -3.0611,-6.6691 -2.4514,1.1231 7.3105,15.946 2.4512,-1.1259 -3.1927,-6.963 2.8519,-1.3102 3.1987,6.963 2.4576,-1.1219 -7.3074,-15.9429 z m 62.4626,-3.236 -6.2719,16.378 7.2688,2.7819 0.917,-2.4009 -4.7219,-1.804 1.8008,-4.712 4.1242,1.569 0.9289,-2.4188 -4.121,-1.5733 0.2092,-0.555 0.2117,-0.5539 0.214,-0.5519 0.214,-0.553 0.2121,-0.553 0.2089,-0.5551 0.2032,-0.5558 0.197,-0.559 0.603,0.2069 0.5989,0.2188 0.5962,0.2271 0.595,0.2321 0.5949,0.2319 0.5959,0.2279 0.5989,0.2203 0.6041,0.2077 0.8941,-2.3859 -0.91,-0.3449 -0.9102,-0.347 -0.9079,-0.3481 -0.9091,-0.3478 -0.9088,-0.3492 -0.909,-0.347 -0.91,-0.3438 z m -47.3825,-2.1418 -0.5786,0.1669 -0.5573,0.2441 -0.5207,0.3149 -0.468,0.383 -0.3991,0.4459 -0.3149,0.5059 -0.2143,0.561 -0.0987,0.6112 0.0122,0.8311 0.0836,0.8217 0.1395,0.815 0.1803,0.8102 0.2063,0.805 0.2169,0.8039 0.2123,0.8031 0.193,0.8039 0.209,0.7789 0.1921,0.7861 0.1868,0.788 0.1942,0.786 0.214,0.779 0.2455,0.7679 0.2894,0.752 0.3453,0.7311 0.2758,0.413 0.3368,0.356 0.388,0.2971 0.4295,0.235 0.46,0.1709 0.4808,0.1029 0.4918,0.034 0.4924,-0.0388 0.5414,-0.0811 0.5457,-0.1159 0.5385,-0.1562 0.5205,-0.203 0.4907,-0.2559 0.4501,-0.3138 0.3986,-0.3793 0.335,-0.4487 0.2384,-0.4791 0.1474,-0.5 L 81.927,25.5829 81.936,25.058 81.8968,24.5279 81.824,23.9978 81.7327,23.4748 81.6363,22.962 79.6731,15.2478 79.5288,14.8019 79.3817,14.349 79.2218,13.898 79.0407,13.456 78.8283,13.0328 78.5766,12.638 78.275,12.278 77.9156,11.9619 77.517,11.7071 77.0904,11.5251 76.6428,11.41 l -0.462,-0.0561 -0.4694,-0.004 -0.4706,0.038 -0.4637,0.0751 z m 27.2934,15.512 2.66,0.4938 0.754,-4.1959 0.0839,-0.4402 0.1542,-0.4079 0.2078,-0.3841 0.2472,-0.3659 0.269,-0.3549 0.2758,-0.3521 0.267,-0.354 0.2432,-0.3649 1.4159,7.9319 2.7241,0.5009 -0.2622,-1.37 -0.2599,-1.3699 -0.2591,-1.37 -0.2599,-1.3709 -0.26,-1.3699 -0.2619,-1.37 -0.2642,-1.37 -0.2679,-1.368 0.586,-0.8031 0.591,-0.7991 0.5941,-0.7979 0.597,-0.796 0.5978,-0.7959 0.597,-0.796 0.5961,-0.7983 0.5939,-0.7988 -2.774,-0.5071 -0.5828,0.809 -0.576,0.8141 -0.5732,0.8159 -0.5728,0.8161 -0.576,0.8141 -0.5831,0.809 -0.5919,0.8019 -0.606,0.7928 0.155,-0.8889 0.1579,-0.887 0.1621,-0.8881 0.163,-0.8858 0.165,-0.8869 0.163,-0.8873 0.163,-0.887 0.159,-0.8869 L 104.777,9.83 Z M 88.9838,10.18 l -0.4382,0.453 -0.3277,0.5128 -0.2333,0.5593 -0.1539,0.5938 -0.0896,0.616 -0.0405,0.6251 -0.007,0.6219 0.0113,0.608 0.0519,1.008 0.0493,1.0091 0.0473,1.0089 0.0474,1.0091 0.0487,1.0089 0.0516,1.0091 0.0553,1.0089 0.0615,1.008 0.0578,0.5541 0.095,0.5638 0.1409,0.5562 0.1964,0.5329 0.2611,0.4941 0.3342,0.4411 0.417,0.3707 0.5082,0.286 0.707,0.1971 0.7449,0.1269 0.7617,0.0451 0.7574,-0.049 0.7317,-0.1551 0.6851,-0.2749 0.6177,-0.406 0.5283,-0.5499 0.2376,-0.3342 0.1808,-0.3557 0.1341,-0.3762 0.0964,-0.39 0.0683,-0.398 0.0496,-0.4028 0.0408,-0.4031 0.0403,-0.398 -2.708,-0.269 -0.0292,0.2869 -0.032,0.3021 -0.0451,0.3059 -0.0686,0.2991 -0.1029,0.2789 -0.1482,0.25 -0.2041,0.2081 -0.2707,0.155 -0.3351,0.116 -0.3441,0.026 -0.337,-0.0569 -0.3141,-0.1302 -0.2758,-0.197 L 91.0736,23.8328 90.9225,23.527 90.857,23.178 90.7811,22.1661 90.7179,21.1518 90.6646,20.139 90.6164,19.1251 90.571,18.1108 90.5248,17.0969 90.4741,16.0829 90.416,15.0698 90.3865,14.415 90.3686,13.752 90.3851,13.4229 90.4296,13.1 l 0.0813,-0.316 0.127,-0.3062 0.1948,-0.271 0.259,-0.2069 0.3042,-0.14 0.3302,-0.0709 0.3362,0.002 0.324,0.0759 0.2914,0.154 0.2398,0.235 0.127,0.172 0.0995,0.1851 0.0774,0.1959 0.0604,0.2041 0.0944,0.4178 0.0944,0.413 2.5767,-0.7968 -0.0692,-0.4561 -0.091,-0.4601 L 95.7664,11.6759 95.6082,11.2371 95.4047,10.8229 95.1473,10.444 94.8284,10.1109 94.44,9.8331 93.7957,9.5179 93.1049,9.305 92.3863,9.195 91.657,9.187 90.9344,9.2808 90.2357,9.4778 89.58,9.7777 Z"
     style="fill:#ffffff;fill-rule:evenodd"
     id="text"
     inkscape:connector-curvature="0"
     inkscape:label="#path4" />
  <path
     d="m 99.178,102.6005 3e-4,20.9146 15.9996,14.3351 -7.9378,4.5856 -8.0615,-7.1886 6e-4,11.8275 -4.6772,2.7196 -4.6772,-2.7196 3e-4,-11.8275 -8.0609,7.1886 -7.9381,-4.5856 15.9996,-14.3351 3e-4,-20.9146 -18.1117,10.4579 -4.4152,21.0234 -7.9399,-4.5816 2.1949,-10.5758 -10.243,5.9145 -4.6936,-2.6906 0.0164,-5.4105 10.2433,-5.9137 -10.2558,-3.3868 0.002,-9.1672 20.4146,6.6883 L 85.1505,94.502 67.038,84.045 l -20.4146,6.6886 -0.002,-9.1675 10.2558,-3.386 -10.2433,-5.9142 -0.0164,-5.4099 4.6936,-2.691 10.243,5.9139 -2.1949,-10.576 7.9399,-4.5811 4.4152,21.024 18.1117,10.457 -3e-4,-20.9137 -15.9996,-14.3362 7.9381,-4.5851 8.0609,7.1893 -3e-4,-11.8282 4.6772,-2.7198 4.6772,2.7198 -6e-4,11.8282 8.0615,-7.1893 7.9378,4.5851 -15.9996,14.3362 -3e-4,20.9137 18.112,-10.457 4.415,-21.024 7.9401,4.5811 -2.1952,10.576 10.243,-5.9139 4.6942,2.691 -0.017,5.4099 -10.243,5.9142 10.256,3.386 -0.002,9.1675 -20.4152,-6.6886 -18.1119,10.457 18.1119,10.4564 20.4152,-6.6883 0.002,9.1672 -10.256,3.3868 10.243,5.9137 0.017,5.4105 -4.6942,2.6906 -10.243,-5.9145 2.1952,10.5758 -7.9401,4.5816 -4.415,-21.0234 z"
     style="fill:#ffffff;fill-rule:evenodd"
     id="snowflake"
     inkscape:connector-curvature="0"
     inkscape:label="#path6" />
</svg>
